<svg xmlns="http://www.w3.org/2000/svg" viewBox="0 0 43 44"><defs><style>.a{isolation:isolate;}.b,.e{opacity:0.2;}.c,.d{fill:#231f20;}.c,.g,.j{opacity:0.4;}.e{fill:#0f272a;mix-blend-mode:multiply;}.f{fill:#fff;}.h,.j{fill:#eadab5;}.i{fill:#e6e6e6;}.k{fill:#faac3d;}.l{fill:#f89a2e;}</style></defs><title>egg-heart</title><g class="a"><g class="b"><ellipse class="c" cx="20.19" cy="22.38" rx="8.89" ry="9.22" transform="translate(-9.69 18.43) rotate(-40.41)"/><path class="d" d="M27,17A8,8,0,1,0,14.84,27.32a8.13,8.13,0,0,0,11.44,1.12A8.13,8.13,0,0,0,27,17Zm-1.11-.36A7.06,7.06,0,0,1,28,24.92S28.6,19.16,25.88,16.61Z"/><path class="d" d="M17,27.1a8.13,8.13,0,0,1,.71-11.47A7.79,7.79,0,0,1,20.86,14a7.74,7.74,0,0,0-5.53,1.84,8.13,8.13,0,0,0-.72,11.47,8.33,8.33,0,0,0,8.28,2.75A8.41,8.41,0,0,1,17,27.1Z"/></g><path class="e" d="M4,12a5.45,5.45,0,0,0-.92,2.66A6.6,6.6,0,0,0,3.26,16c.26,1.38.51,2.77.77,4.15a8.19,8.19,0,0,0,.83,2.72c.25.43.57.81.78,1.26.31.65,0,1,0,1.61a7,7,0,0,0,1,2.27c.93,1.74.72,3.89,2,5.5a26.54,26.54,0,0,0,2.12,2c1,1,1.28,2.6,2,3.8.59,1,1,2,2.09,2.46s3.16,1.17,4.25.83a30.06,30.06,0,0,0,6-2.73A41.59,41.59,0,0,0,35.8,31.19a20.17,20.17,0,0,0,3.83-5.8A12.58,12.58,0,0,0,40,22.8a20.38,20.38,0,0,1,1.41-4.11,7.72,7.72,0,0,0,.48-1.64,7.05,7.05,0,0,0-1.18-4.21,18.31,18.31,0,0,0-2.05-3.47c-1.44-1.65-4-1.93-5.94-2.79-2.56-1.16-5.89,3.09-8.63,2.13S21.79,3,17.22,3a14.16,14.16,0,0,0-8,2C6.89,6.59,5.92,9,4.47,11.31,4.32,11.55,4.17,11.78,4,12Z"/><path class="f" d="M3.59,11.75a5.55,5.55,0,0,0-.92,2.66,6.43,6.43,0,0,0,.15,1.32c.26,1.38.51,2.77.77,4.15a8.19,8.19,0,0,0,.83,2.72c.25.43.58.82.79,1.26.3.65,0,1,0,1.61a7.26,7.26,0,0,0,1,2.27c.93,1.74.73,3.89,2,5.5a28.5,28.5,0,0,0,2.12,2c1,1,1.28,2.59,2,3.79.59,1,1.47,3.12,2.55,3.63s2.7,0,3.79-.33a30.1,30.1,0,0,0,6-2.74,41.25,41.25,0,0,0,10.69-8.67,20.17,20.17,0,0,0,3.83-5.8,11.85,11.85,0,0,0,.33-2.59,20.38,20.38,0,0,1,1.41-4.11,7.72,7.72,0,0,0,.48-1.64,7,7,0,0,0-1.18-4.21,18.23,18.23,0,0,0-2-3.46c-1.44-1.66-4-1.94-5.94-2.8-2.56-1.16-5.89,3.1-8.63,2.14s-2.26-5.67-6.82-5.71a14.1,14.1,0,0,0-8,2C6.46,6.31,5.49,8.73,4,11,3.88,11.27,3.73,11.51,3.59,11.75Z"/><g class="g"><path class="h" d="M5.1,22.82c-.21-.45-.53-.83-.78-1.26a8.6,8.6,0,0,1-.84-2.72c-.25-1.39-.5-2.77-.76-4.16,0-.09,0-.18-.05-.27h0a6.43,6.43,0,0,0,.15,1.32l.77,4.15a8.19,8.19,0,0,0,.83,2.72c.24.41.54.78.75,1.2A1.36,1.36,0,0,0,5.1,22.82Z"/><path class="i" d="M39.52,22.52a20.38,20.38,0,0,1,1.41-4.11,7.72,7.72,0,0,0,.48-1.64,4.5,4.5,0,0,0-.07-1.51c0,.16,0,.31,0,.47a8.08,8.08,0,0,1-.48,1.64,19.58,19.58,0,0,0-1.41,4.11,12,12,0,0,1-.34,2.59,19.93,19.93,0,0,1-3.82,5.8,41.76,41.76,0,0,1-10.69,8.66,30.1,30.1,0,0,1-6,2.74c-1.09.34-2.67.86-3.79.33s-2-2.67-2.55-3.63c-.73-1.19-1-2.8-2-3.79a26.54,26.54,0,0,1-2.12-2c-1.28-1.61-1.07-3.76-2-5.51A12.1,12.1,0,0,1,5.25,25a1.79,1.79,0,0,0,0,.47,7.26,7.26,0,0,0,1,2.27c.93,1.74.73,3.89,2,5.5a28.5,28.5,0,0,0,2.12,2c1,1,1.28,2.59,2,3.79.59,1,1.47,3.12,2.55,3.63s2.7,0,3.79-.33a30.1,30.1,0,0,0,6-2.74,41.25,41.25,0,0,0,10.69-8.67,20.17,20.17,0,0,0,3.83-5.8A11.85,11.85,0,0,0,39.52,22.52Z"/></g><path class="j" d="M25.34,13.08a9.2,9.2,0,1,1-12.21,4.48A9.19,9.19,0,0,1,25.34,13.08Z"/><path class="k" d="M13.45,17.39a8.25,8.25,0,1,0,11-4A8.25,8.25,0,0,0,13.45,17.39Zm.16,1.17s.82-4.89,6.77-5.33C20.38,13.23,14.77,15,13.61,18.56Z"/><path class="l" d="M27.28,22.45a8.27,8.27,0,0,1-13.87,1.78,8.26,8.26,0,1,0,14-8.41A8.2,8.2,0,0,1,27.28,22.45Z"/></g></svg>