<svg xmlns="http://www.w3.org/2000/svg" xmlns:xlink="http://www.w3.org/1999/xlink" viewBox="0 0 43 44"><defs><style>.a{fill:#0f272a;opacity:0.2;}.b{fill:url(#a);}.c{fill:#fff;}.d{fill:url(#b);}.e{fill:url(#c);}.f{fill:url(#d);}</style><radialGradient id="a" cx="127.43" cy="-57.5" r="28.33" gradientTransform="translate(-125.16 41.09) rotate(18.18)" gradientUnits="userSpaceOnUse"><stop offset="0" stop-color="#e8e8e8"/><stop offset="0.24" stop-color="#e4e3e3"/><stop offset="0.55" stop-color="#d7d6d3"/><stop offset="0.88" stop-color="#c2c0ba"/><stop offset="1" stop-color="#b9b6af"/></radialGradient><radialGradient id="b" cx="127.31" cy="-54.67" r="28.33" gradientTransform="translate(-125.16 41.09) rotate(18.18)" gradientUnits="userSpaceOnUse"><stop offset="0" stop-color="#fff"/><stop offset="0.2" stop-color="#fafafa"/><stop offset="0.45" stop-color="#edecea"/><stop offset="0.72" stop-color="#d7d5d1"/><stop offset="1" stop-color="#b9b6af"/></radialGradient><radialGradient id="c" cx="-180.08" cy="-136.93" r="18.5" gradientTransform="translate(38.56 -213.27) rotate(-124.26)" xlink:href="#a"/><radialGradient id="d" cx="344.25" cy="-1127.72" r="19.32" gradientTransform="translate(-1097.69 363.36) rotate(55.74)" xlink:href="#b"/></defs><title>egg-cracked</title><path class="a" d="M28.19,31.21c-3.09,9.39-11.68,12.85-17.32,11C4.47,40.12.35,32.34,3.44,23A24.5,24.5,0,0,1,4.9,19.44L5.75,22l2.19.19,1.16.91,3.05-.8.65,2.46,1.09,0L15,26.77l3.41-1.18,2.3,2.22L24,27.05l.68,1.23,2.76-.39,1.16,1.9C28.48,30.26,28.34,30.74,28.19,31.21Z"/><path class="b" d="M27.9,29.19C24.82,38.58,16.64,40.93,11,39.08,4.6,37,.71,30.49,3.8,21.1c.4-1.21-.17-1.14.4-2.26l1.27-.47.71,1.11L8.73,19l1.51,1.47L14,20.2l1.09,0,.59.88,3.27-.46,3.67,3.54,1.56-.2.67,1.23,2.46.69.64,3.35C27.78,29.66,28.06,28.72,27.9,29.19Z"/><path class="c" d="M27.54,30.43c-3.08,9.39-11.47,13.17-17.31,11C3.36,38.88-.29,31.56,2.79,22.17a23.34,23.34,0,0,1,1.44-3.42l.88,2.46,2.19.18,1.16.92,3-.81L12.26,24h1.11l1,1.9,3.39-1.17,2.3,2.3,3.28-.71L24,27.51l2.76-.4,1.15,2C27.82,29.54,27.7,30,27.54,30.43Z"/><path class="d" d="M27.49,30.6c-3.09,9.4-11.68,12.85-17.32,11C3.77,39.52-.35,31.74,2.73,22.35A25.23,25.23,0,0,1,4.2,18.84l.85,2.54,2.19.18,1.16.92,3-.8.65,2.46,1.09,0,1.08,2.07L17.68,25,20,27.21l3.32-.76L24,27.68l2.77-.4,1.16,1.91C27.78,29.66,27.64,30.14,27.49,30.6Z"/><path class="a" d="M39.4,6.4c-3.25-4.76-12.4-5.1-20-1.5l0,0L19.24,5l-1.68,3,.78.75-.78,1.85,1.72,1.93-1,2.3,1.27,1-.18,1,3.53,2.76L23,22l3.87,1.62.54,1.28,3.46.68.59,1.61.17-.14v0C38.88,21.42,42.93,11.6,39.4,6.4Z"/><path class="e" d="M31.38,26.25l-.59-1.61L27.33,24l-.54-1.28-3.87-1.61,0-2.42L19.35,15.9l.19-1-1.28-1,1-2.3L17.5,9.73l.78-1.85-.78-.74,1.68-3C26.77.5,35.1,1.4,38.35,6.16,41.88,11.36,38.65,20.62,31.38,26.25Z"/><path class="c" d="M31.38,26.25l.23-2.17-2.32-1.87.16-.82-3-1.39L26,16.91l-3.35-1.13.4-2.24-.87-.62,1-2.3L20.26,9.43,19.91,8,18.32,6.58l.86-2.48C26.77.5,35.92.84,39.17,5.6,42.7,10.8,38.65,20.62,31.38,26.25Z"/><path class="f" d="M31.55,26.14,31.78,24l-2.32-1.88.16-.82-3-1.39-.45-3.09-3.35-1.12.39-2.24-.86-.63,1-2.29-2.84-1.2-.35-1.4L18.49,6.47,19.35,4c7.59-3.6,16.74-3.26,20,1.5C42.87,10.68,38.82,20.5,31.55,26.14Z"/></svg>