<svg xmlns="http://www.w3.org/2000/svg" xmlns:xlink="http://www.w3.org/1999/xlink" viewBox="0 0 43 44">
  <defs>
    <style>
      .a{
        fill:#0f272a;
        opacity:0.2;
      }
      .b{
        fill:url(#a);
      }
      .c{
        isolation:isolate;
        fill:url(#b);
      }
    </style>
    <radialGradient id="a" cx="-127026.44" cy="-80676.79" r="21.76" gradientTransform="matrix(0.79, 0.08, 0.13, -1.38, 111506.69, -101722.15)" gradientUnits="userSpaceOnUse">
      <stop offset="0" stop-color="#fff"/>
      <stop offset="0.43" stop-color="#f2f2f2"/>
      <stop offset="1" stop-color="#f1eeea"/>
    </radialGradient>
    <linearGradient id="b" x1="-101323.13" y1="-111083.42" x2="-101323.13" y2="-111022.44" gradientTransform="matrix(1, 0.1, 0.1, -1, 111521.15, -100769.43)" gradientUnits="userSpaceOnUse">
      <stop offset="0" stop-color="#806540"/>
      <stop offset="1" stop-color="#806540" stop-opacity="0"/>
    </linearGradient>
  </defs>
  <title>egg-whole</title>
  <path class="a" d="M36,27.88c-1.06,11-7.89,15.27-15.72,14.51S6.59,36.18,7.65,25.15,16.33,1.69,24.16,2.44,37.11,16.86,36,27.88Z"/>
  <path class="b" d="M35.65,27.34c-1,10.84-7.86,15-15.7,14.24s-13.74-6.13-12.69-17,8.64-23,16.47-22.3,13,14.19,11.92,25Z"/>
  <path class="c" d="M35.65,27.34c-1,10.84-7.86,15-15.7,14.24s-13.74-6.13-12.69-17,8.64-23,16.47-22.3,13,14.19,11.92,25Z"/>
</svg>