<svg xmlns="http://www.w3.org/2000/svg" viewBox="0 0 43 44"><defs><style>.a{opacity:0.2;}.b,.c{fill:#231f20;}.c,.e{opacity:0.4;}.d{fill:#fff;}.e{fill:#eadab5;}.f{fill:#faac3d;}.g{fill:#f89a2e;}</style></defs><title>egg-open</title><g class="a"><path class="b" d="M3.22,12.77a7.85,7.85,0,0,0-1.46,4.66c-.08,2.8,1.07,5.52,2,8.19S.5,37,11.26,39.26c1.61.34,3.35-.43,5,.23.61.25,1,.75,1.63,1a14,14,0,0,0,2.82.62,18.8,18.8,0,0,0,9.94-.73,13.06,13.06,0,0,0,7.79-6.77A13.89,13.89,0,0,0,40.3,27c-.08-2.28-.77-3.41-1-5.7-.14-1.53,0-3.07-.08-4.6C39,13.06,37.08,8.52,33.86,6.36,32,5.12,29.42,5.48,27.35,5.11,24.56,4.61,22.11,3,19.2,2.77s-5.94.51-7.74,2.65A37.38,37.38,0,0,0,9.29,8.89c-1.09,1.61-2.47,2-4.22,2.58A4,4,0,0,0,3.22,12.77Z"/><path class="c" d="M28.88,27.53a9.18,9.18,0,0,1-12.8,2.14A9.18,9.18,0,0,1,13.48,17a9.18,9.18,0,0,1,12.79-2.14A9.18,9.18,0,0,1,28.88,27.53Z"/><path class="b" d="M26.4,15.16a8.25,8.25,0,0,0-11.49,1.93,8.23,8.23,0,0,0,2.34,11.4,8.23,8.23,0,0,0,11.48-1.92A8.24,8.24,0,0,0,26.4,15.16Zm-1.18-.05a7.12,7.12,0,0,1,4.25,7.56S28.55,16.88,25.22,15.11Z"/><path class="b" d="M19.29,27.71A8.23,8.23,0,0,1,17,16.31a7.7,7.7,0,0,1,2.67-2.42,7.93,7.93,0,0,0-4.93,3.26A8.23,8.23,0,0,0,17,28.55a8.41,8.41,0,0,0,8.82.5A8.48,8.48,0,0,1,19.29,27.71Z"/></g><path class="d" d="M3.21,11.87a8.34,8.34,0,0,0-1.55,4.79c-.13,2.87,1,5.62,1.91,8.34S.06,36.71,10.87,38.83c1.63.32,3.4-.5,5,.15.62.25,1,.74,1.64,1a13.43,13.43,0,0,0,2.83.59,18.91,18.91,0,0,0,10.05-.92,13.89,13.89,0,0,0,8-7,14.86,14.86,0,0,0,2-6.8c0-2.33-.72-3.48-.88-5.81-.11-1.57.07-3.14,0-4.71-.17-3.73-2.05-8.34-5.27-10.5C32.42,3.55,29.79,4,27.71,3.62c-2.8-.46-5.26-2-8.19-2.25s-6,.62-7.86,2.84A40.06,40.06,0,0,0,9.41,7.8C8.29,9.46,6.88,9.87,5.1,10.51A4.29,4.29,0,0,0,3.21,11.87Z"/><path class="e" d="M22.76,12.07A9.32,9.32,0,1,1,12,19.68,9.32,9.32,0,0,1,22.76,12.07Z"/><path class="f" d="M12.27,19.43a8.36,8.36,0,1,0,9.66-6.83A8.36,8.36,0,0,0,12.27,19.43Zm.46,1.1s-.48-5,5.22-7C18,13.53,12.93,16.76,12.73,20.53Z"/><path class="g" d="M27.13,20.72a8.37,8.37,0,0,1-9.66,6.83A8.27,8.27,0,0,1,14,26.12,8.36,8.36,0,1,0,25.51,14.2,8.34,8.34,0,0,1,27.13,20.72Z"/></svg>