<svg xmlns="http://www.w3.org/2000/svg" xmlns:xlink="http://www.w3.org/1999/xlink" viewBox="0 0 200 200"><defs><style>.a{fill:none;}.b,.e{opacity:0.2;}.c,.d{fill:#231f20;}.c,.g,.i,.m{opacity:0.4;}.e,.l,.m{fill:#0f272a;}.e{mix-blend-mode:multiply;}.f{fill:#fff;}.h,.i{fill:#eadab5;}.j{fill:#faac3d;}.k{fill:#f89a2e;}.n{fill:url(#a);}.o,.q,.s{isolation:isolate;}.o{fill:url(#b);}.p{fill:url(#c);}.q{fill:url(#d);}.r{fill:url(#e);}.s{fill:url(#f);}.t{fill:url(#g);}</style><radialGradient id="a" cx="-69613.21" cy="40412.9" r="24" gradientTransform="matrix(0.8, 0.02, -0.04, 1.39, 57316.42, -54305.66)" gradientUnits="userSpaceOnUse"><stop offset="0" stop-color="#fff"/><stop offset="0.43" stop-color="#f2f2f2"/><stop offset="1" stop-color="#f1eeea"/></radialGradient><linearGradient id="b" x1="-53928.07" y1="58483.44" x2="-53928.07" y2="58416.18" gradientTransform="translate(55849.52 -56682.31) rotate(1.78)" gradientUnits="userSpaceOnUse"><stop offset="0" stop-color="#806540"/><stop offset="1" stop-color="#806540" stop-opacity="0"/></linearGradient><radialGradient id="c" cx="-85172.64" cy="13033.26" r="18.56" gradientTransform="matrix(0.73, -0.33, 0.57, 1.27, 54587.79, -44223.81)" xlink:href="#a"/><linearGradient id="d" x1="-66327.04" y1="20470.94" x2="-66327.04" y2="20418.92" gradientTransform="matrix(0.91, -0.41, 0.41, 0.91, 52228.16, -45717.93)" xlink:href="#b"/><radialGradient id="e" cx="-15123.52" cy="48242.9" r="22.52" gradientTransform="matrix(0.69, 0.41, -0.71, 1.19, 44718.53, -51280.52)" gradientUnits="userSpaceOnUse"><stop offset="0" stop-color="#fff"/><stop offset="0.36" stop-color="#f2f2f2"/><stop offset="1" stop-color="#f1eeea"/></radialGradient><linearGradient id="f" x1="-10504.37" y1="69335.65" x2="-10504.37" y2="69272.53" gradientTransform="translate(44584.38 -54070.19) rotate(30.71)" xlink:href="#b"/><pattern id="g" width="200" height="200" patternTransform="translate(-75.4 -118.67)" patternUnits="userSpaceOnUse" viewBox="0 0 200 200"><rect class="a" width="200" height="200"/><g class="b"><ellipse class="c" cx="45.76" cy="56.36" rx="9.92" ry="9.57" transform="translate(-26.54 62.85) rotate(-56.05)"/><path class="d" d="M53.69,51.4a8.59,8.59,0,1,0-2.15,12.18A8.75,8.75,0,0,0,53.69,51.4Zm-1.15-.52s4,3.52,1.25,9.14C53.79,60,55.14,53.93,52.54,50.88Z"/><path class="d" d="M41.76,61a8.75,8.75,0,0,1,2.15-12.19,8.35,8.35,0,0,1,3.58-1.35,8.39,8.39,0,0,0-6.14,1.3A8.75,8.75,0,0,0,39.2,61a9,9,0,0,0,8.52,3.94A9.06,9.06,0,0,1,41.76,61Z"/></g><path class="e" d="M29.73,43.32a5.91,5.91,0,0,0-1.31,2.74,6.84,6.84,0,0,0,0,1.43c.1,1.51.2,3,.31,4.53a9,9,0,0,0,.56,3c.21.48.52.93.69,1.44.24.73-.17,1.08-.19,1.72a7.71,7.71,0,0,0,.78,2.54c.79,2,.31,4.26,1.47,6.13a28.66,28.66,0,0,0,2,2.38c.92,1.18,1.05,2.94,1.69,4.3.51,1.1.84,2.21,1.94,2.89s3.24,1.64,4.45,1.41a32,32,0,0,0,6.74-2.2,44.68,44.68,0,0,0,12.49-8,21.69,21.69,0,0,0,4.8-5.74,12.79,12.79,0,0,0,.66-2.73,22.35,22.35,0,0,1,2-4.22,8.15,8.15,0,0,0,.71-1.7,7.57,7.57,0,0,0-.75-4.64,19.54,19.54,0,0,0-1.77-4C65.71,42.74,63,42.11,61,41c-2.59-1.56-6.67,2.6-9.48,1.24s-1.74-6.34-6.62-6.94a15.33,15.33,0,0,0-8.79,1.21c-2.69,1.37-4,3.85-5.86,6.13Z"/><path class="f" d="M29.29,43A6,6,0,0,0,28,45.71a7.59,7.59,0,0,0,0,1.43c.11,1.51.21,3,.31,4.53a8.8,8.8,0,0,0,.57,3c.21.48.51.93.68,1.44.25.73-.16,1.08-.18,1.72a7.27,7.27,0,0,0,.78,2.54c.78,2,.3,4.26,1.47,6.13a28.66,28.66,0,0,0,2,2.38c.91,1.18,1.05,2.94,1.69,4.3.51,1.1,1.19,3.52,2.29,4.19s2.88.34,4.09.11a32.1,32.1,0,0,0,6.75-2.2,44.68,44.68,0,0,0,12.49-8,21.66,21.66,0,0,0,4.79-5.74,12.24,12.24,0,0,0,.67-2.73,21.19,21.19,0,0,1,2-4.22,8.15,8.15,0,0,0,.71-1.7,7.57,7.57,0,0,0-.75-4.64,20.11,20.11,0,0,0-1.77-4c-1.34-1.94-4.1-2.57-6-3.71-2.6-1.56-6.67,2.6-9.49,1.24s-1.73-6.34-6.61-6.94a15.36,15.36,0,0,0-8.8,1.21c-2.68,1.37-4,3.85-5.85,6.13C29.66,42.49,29.47,42.73,29.29,43Z"/><g class="g"><path class="h" d="M29.57,55a16,16,0,0,0-.69-1.45,9,9,0,0,1-.56-3c-.1-1.51-.21-3-.31-4.53,0-.1,0-.2,0-.3h0a7.59,7.59,0,0,0,0,1.43l.31,4.53a8.8,8.8,0,0,0,.57,3c.2.46.48.89.65,1.37A1.46,1.46,0,0,0,29.57,55Z"/><path class="h" d="M66.42,58.85a21.19,21.19,0,0,1,2-4.22,8.15,8.15,0,0,0,.71-1.7,4.67,4.67,0,0,0,.1-1.62,4.17,4.17,0,0,1-.08.49,8.76,8.76,0,0,1-.72,1.7,21.71,21.71,0,0,0-2,4.22,13.45,13.45,0,0,1-.67,2.73A21.51,21.51,0,0,1,61,66.19a44.53,44.53,0,0,1-12.49,8,33.21,33.21,0,0,1-6.74,2.2c-1.21.23-3,.59-4.1-.11s-1.77-3.09-2.29-4.19c-.64-1.37-.77-3.12-1.68-4.3a27,27,0,0,1-2-2.38c-1.16-1.88-.68-4.15-1.47-6.13a13.65,13.65,0,0,1-.7-1.91,1.59,1.59,0,0,0-.09.5,7.27,7.27,0,0,0,.78,2.54c.78,2,.3,4.26,1.47,6.13a28.66,28.66,0,0,0,2,2.38c.91,1.18,1.05,2.94,1.69,4.3.51,1.1,1.19,3.52,2.29,4.19s2.88.34,4.09.11a32.1,32.1,0,0,0,6.75-2.2,44.68,44.68,0,0,0,12.49-8,21.66,21.66,0,0,0,4.79-5.74A12.24,12.24,0,0,0,66.42,58.85Z"/></g><path class="i" d="M52.4,47a9.9,9.9,0,1,1-13.61,3.31A9.9,9.9,0,0,1,52.4,47Z"/><path class="j" d="M39.15,50.2a8.89,8.89,0,1,0,12.22-3A8.89,8.89,0,0,0,39.15,50.2Zm0,1.27s1.48-5.13,7.9-4.87C47.08,46.6,40.85,47.83,39.18,51.47Z"/><path class="k" d="M53.34,57.29a8.89,8.89,0,0,1-15.05.23,8.89,8.89,0,1,0,16-7.31A8.85,8.85,0,0,1,53.34,57.29Z"/><g class="b"><path class="d" d="M119.08,152.76a7.85,7.85,0,0,0-1.46,4.66c-.08,2.8,1.07,5.52,2,8.19s-3.29,11.39,7.47,13.65c1.61.33,3.35-.44,4.94.22.62.25,1.05.75,1.64,1a14,14,0,0,0,2.82.62,18.8,18.8,0,0,0,9.94-.73,13.06,13.06,0,0,0,7.79-6.77,14,14,0,0,0,1.91-6.61c-.08-2.28-.77-3.41-1-5.7-.14-1.53,0-3.07-.08-4.6-.23-3.65-2.17-8.19-5.39-10.35-1.85-1.24-4.44-.88-6.51-1.25-2.79-.5-5.25-2.08-8.15-2.34s-5.94.51-7.74,2.65a37.38,37.38,0,0,0-2.17,3.47c-1.09,1.61-2.47,2-4.22,2.58A4,4,0,0,0,119.08,152.76Z"/><path class="c" d="M144.73,167.52a9.34,9.34,0,1,1-2.6-12.71A9.17,9.17,0,0,1,144.73,167.52Z"/><path class="d" d="M142.26,155.16a8.09,8.09,0,1,0,2.33,11.4A8.24,8.24,0,0,0,142.26,155.16Zm-1.19-.06a7.12,7.12,0,0,1,4.26,7.56S144.41,156.87,141.07,155.1Z"/><path class="d" d="M135.15,167.7a8.23,8.23,0,0,1-2.34-11.4,7.76,7.76,0,0,1,2.66-2.42,7.93,7.93,0,0,0-4.92,3.26,8.23,8.23,0,0,0,2.34,11.4,8.39,8.39,0,0,0,8.82.5A8.48,8.48,0,0,1,135.15,167.7Z"/></g><path class="f" d="M119.07,151.86a8.27,8.27,0,0,0-1.55,4.79c-.13,2.87,1,5.62,1.91,8.34s-3.51,11.71,7.3,13.83c1.63.32,3.4-.5,5,.15.61.25,1,.75,1.64,1a13.47,13.47,0,0,0,2.82.59,18.93,18.93,0,0,0,10.06-.92,13.89,13.89,0,0,0,8-7,14.86,14.86,0,0,0,2-6.8c0-2.33-.72-3.48-.88-5.81-.12-1.57.07-3.14,0-4.71-.17-3.73-2-8.34-5.27-10.49-1.84-1.24-4.47-.83-6.55-1.17-2.81-.46-5.26-2-8.19-2.25s-6,.62-7.86,2.84a40.06,40.06,0,0,0-2.25,3.59c-1.13,1.66-2.53,2.07-4.31,2.71A4.29,4.29,0,0,0,119.07,151.86Z"/><path class="i" d="M138.62,152.06a9.32,9.32,0,1,1-10.76,7.61A9.32,9.32,0,0,1,138.62,152.06Z"/><path class="j" d="M128.13,159.42a8.36,8.36,0,1,0,9.65-6.83A8.35,8.35,0,0,0,128.13,159.42Zm.46,1.1s-.48-5,5.22-7C133.81,153.52,128.79,156.75,128.59,160.52Z"/><path class="k" d="M143,160.71a8.37,8.37,0,0,1-13.09,5.41,8.36,8.36,0,1,0,11.47-11.93A8.37,8.37,0,0,1,143,160.71Z"/><g class="b"><ellipse class="c" cx="71.76" cy="139.07" rx="9.28" ry="8.95" transform="translate(-60.36 55.2) rotate(-30.3)"/><path class="d" d="M76.42,131.67a8,8,0,1,0,3.13,11.14A8.19,8.19,0,0,0,76.42,131.67Zm-1.18,0A7.11,7.11,0,0,1,80,138.89S78.67,133.22,75.24,131.7Z"/><path class="d" d="M70.28,144.62a8.18,8.18,0,0,1-3.14-11.13,7.74,7.74,0,0,1,2.46-2.59A7.82,7.82,0,0,0,65,134.48a8.2,8.2,0,0,0,3.14,11.14,8.37,8.37,0,0,0,8.78-.15A8.45,8.45,0,0,1,70.28,144.62Z"/></g><path class="e" d="M53.7,135.11a5.65,5.65,0,0,0,0,2.83,6.18,6.18,0,0,0,.57,1.19l2,3.65A8.3,8.3,0,0,0,58,145.07c.37.32.8.57,1.14.92.5.51.29,1,.53,1.52a6.71,6.71,0,0,0,1.65,1.8c1.44,1.33,1.93,3.43,3.65,4.52.81.51,1.77.72,2.63,1.15,1.23.61,2,2,3.11,2.9.86.7,1.57,1.5,2.75,1.61s3.35,0,4.27-.65a30,30,0,0,0,4.75-4.61,42.31,42.31,0,0,0,7.28-11.78,20.49,20.49,0,0,0,1.73-6.77,11.66,11.66,0,0,0-.52-2.55,20.41,20.41,0,0,1,0-4.35,7.49,7.49,0,0,0-.08-1.71,6.93,6.93,0,0,0-2.46-3.58,17.32,17.32,0,0,0-3-2.57c-1.88-1.08-4.42-.46-6.48-.63-2.78-.23-4.54,4.91-7.42,4.93s-4-4.58-8.25-3.08a14.43,14.43,0,0,0-6.87,4.63c-1.69,2.25-1.83,4.86-2.46,7.52C53.83,134.56,53.76,134.84,53.7,135.11Z"/><path class="f" d="M52.45,134.49a5.47,5.47,0,0,0,0,2.84,7,7,0,0,0,.58,1.2c.7,1.23,1.4,2.46,2.11,3.69a8.2,8.2,0,0,0,1.69,2.3c.38.33.82.58,1.17.94.5.52.3,1,.54,1.52a7,7,0,0,0,1.69,1.83c1.46,1.35,2,3.46,3.73,4.56a25.46,25.46,0,0,0,2.67,1.18c1.25.62,2.08,2,3.17,2.94.88.71,2.43,2.47,3.63,2.6s2.57-.89,3.49-1.58a30.16,30.16,0,0,0,4.79-4.59A42,42,0,0,0,89,142.13a20.27,20.27,0,0,0,1.71-6.78,11.89,11.89,0,0,0-.55-2.57,20,20,0,0,1,0-4.37,8.27,8.27,0,0,0-.09-1.72,7.15,7.15,0,0,0-2.52-3.61,18.81,18.81,0,0,0-3.1-2.61c-1.92-1.09-4.49-.49-6.57-.68-2.82-.25-4.57,4.9-7.49,4.9s-4-4.64-8.38-3.15a14.31,14.31,0,0,0-6.92,4.59c-1.7,2.24-1.82,4.86-2.44,7.54Z"/><g class="g"><path class="h" d="M57.57,144.5a14.91,14.91,0,0,0-1.17-.93,8.39,8.39,0,0,1-1.69-2.31c-.7-1.23-1.4-2.46-2.11-3.69l-.13-.25h0a7,7,0,0,0,.58,1.2l2.11,3.69a8.2,8.2,0,0,0,1.69,2.3c.36.31.77.56,1.11.89A1.37,1.37,0,0,0,57.57,144.5Z"/><path class="h" d="M90.16,132.78a20,20,0,0,1,0-4.37,8.27,8.27,0,0,0-.09-1.72,4.7,4.7,0,0,0-.57-1.41c0,.15.09.3.12.45a7.64,7.64,0,0,1,.09,1.72,20.58,20.58,0,0,0,0,4.37,11.88,11.88,0,0,1,.54,2.57,20.26,20.26,0,0,1-1.7,6.78A41.76,41.76,0,0,1,81.28,153a30.07,30.07,0,0,1-4.78,4.59c-.93.69-2.26,1.7-3.5,1.58s-2.75-1.89-3.62-2.6c-1.1-.89-1.93-2.32-3.17-2.94a24.73,24.73,0,0,1-2.68-1.18c-1.74-1.1-2.26-3.21-3.73-4.56a13.91,13.91,0,0,1-1.37-1.32,1.91,1.91,0,0,0,.13.45,7,7,0,0,0,1.69,1.83c1.46,1.35,2,3.46,3.73,4.56a25.46,25.46,0,0,0,2.67,1.18c1.25.62,2.08,2,3.17,2.94.88.71,2.43,2.47,3.63,2.6s2.57-.89,3.49-1.58a30.16,30.16,0,0,0,4.79-4.59A42,42,0,0,0,89,142.13a20.27,20.27,0,0,0,1.71-6.78A11.89,11.89,0,0,0,90.16,132.78Z"/></g><path class="i" d="M73.56,128.53a9.25,9.25,0,1,1-10.11,8.31A9.24,9.24,0,0,1,73.56,128.53Z"/><path class="j" d="M63.69,136.57a8.31,8.31,0,1,0,9.08-7.46A8.32,8.32,0,0,0,63.69,136.57Zm.54,1.06s-.84-4.92,4.67-7.31C68.9,130.32,64.16,133.88,64.23,137.63Z"/><path class="k" d="M78.51,136.78a8.29,8.29,0,0,1-9.07,7.46,8.2,8.2,0,0,1-3.51-1.16,8.31,8.31,0,1,0,10.5-12.65A8.25,8.25,0,0,1,78.51,136.78Z"/><g class="b"><path class="d" d="M26,175.38A8.1,8.1,0,0,0,30.87,174c2.46-1.52,4.15-4.06,5.91-6.41s11.69-3.64,7.52-14.19c-.62-1.58-2.28-2.65-2.62-4.4-.13-.67,0-1.33-.06-2a13.38,13.38,0,0,0-1.06-2.78,19.48,19.48,0,0,0-6.28-8.17A13.54,13.54,0,0,0,24,133.19a14.51,14.51,0,0,0-6.78,2.11c-1.92,1.37-2.51,2.61-4.37,4.08-1.24,1-2.66,1.73-3.92,2.68-3,2.28-5.83,6.53-5.87,10.54,0,2.3,1.77,4.33,2.63,6.32,1.15,2.69,1.19,5.71,2.62,8.36s3.81,4.83,6.68,5.17a39.7,39.7,0,0,0,4.22-.1c2,0,3.12,1,4.63,2.17A4.12,4.12,0,0,0,26,175.38Z"/><ellipse class="c" cx="23.87" cy="155.12" rx="9.3" ry="9.64" transform="translate(-2.92 0.48) rotate(-1.08)"/><path class="d" d="M14.8,154.64A8.51,8.51,0,0,0,23,163.46a8.66,8.66,0,0,0,.33-17.31A8.5,8.5,0,0,0,14.8,154.64Zm.62,1.06a7.37,7.37,0,0,1,4.1-8S15.05,151.82,15.42,155.7Z"/><path class="d" d="M29.66,153.64a8.51,8.51,0,0,1-8.51,8.5,8.07,8.07,0,0,1-3.6-.92,8.14,8.14,0,0,0,5.61,2.39,8.51,8.51,0,0,0,8.51-8.5,8.71,8.71,0,0,0-4.59-7.89A8.77,8.77,0,0,1,29.66,153.64Z"/></g><path class="f" d="M24.81,175.15a8.66,8.66,0,0,0,5-1.39c2.55-1.52,4.29-4,6.11-6.39s12.1-3.62,7.78-14.16c-.65-1.58-2.36-2.64-2.72-4.39-.13-.67,0-1.32-.06-2a13.44,13.44,0,0,0-1.1-2.77,19.56,19.56,0,0,0-6.51-8.15A14.32,14.32,0,0,0,22.7,133a15.53,15.53,0,0,0-7,2.1c-2,1.37-2.59,2.6-4.51,4.07-1.29,1-2.75,1.72-4.06,2.68-3.12,2.26-6,6.5-6.06,10.5,0,2.3,1.83,4.33,2.72,6.31,1.2,2.69,1.24,5.7,2.72,8.35s3.94,4.82,6.91,5.17c1.45.16,2.91-.12,4.37-.1,2.08,0,3.23,1,4.79,2.17A4.43,4.43,0,0,0,24.81,175.15Z"/><circle class="i" cx="22.69" cy="154.31" r="9.62"/><path class="j" d="M13.3,153.83a8.64,8.64,0,1,0,8.8-8.47A8.64,8.64,0,0,0,13.3,153.83Zm.65,1s-1.27-5,4.24-7.95C18.19,146.93,13.56,151,14,154.88Z"/><path class="k" d="M28.68,152.84a8.63,8.63,0,0,1-12.53,7.55,8.64,8.64,0,1,0,9.86-14A8.67,8.67,0,0,1,28.68,152.84Z"/><g class="g"><path class="l" d="M24.31,188.74l2.27.61a1.82,1.82,0,0,0,.62.09c.32,0,.55-.29.7-.83s.1-.82-.07-1a1.26,1.26,0,0,0-.28-.19,3.48,3.48,0,0,0-.4-.12l-2.29-.62.31-1.17,3.56,1a2.11,2.11,0,0,0,.62.09q.46,0,.69-.84c.13-.49.11-.82-.07-1a1.26,1.26,0,0,0-.28-.19,3.48,3.48,0,0,0-.4-.12l-4.56-1.23a1.3,1.3,0,0,0-.9,0,1.14,1.14,0,0,0-.43.75l-1.73,6.44a1.77,1.77,0,0,0-.09.61c0,.32.29.55.83.7L27,192.92a2.11,2.11,0,0,0,.62.09c.31,0,.54-.29.69-.83s.1-.83-.07-1A1,1,0,0,0,28,191a3.14,3.14,0,0,0-.4-.13l-3.57-1Z"/><path class="l" d="M33.38,193.64a1.33,1.33,0,0,1-.42.81.89.89,0,0,1-.79.24,2.06,2.06,0,0,1-1.17-.63.52.52,0,0,0-.32-.19.39.39,0,0,0-.3,0,2.3,2.3,0,0,0-.41.29,1.15,1.15,0,0,0-.48.76c0,.24.2.54.7.92a3.56,3.56,0,0,0,1.65.7,3.13,3.13,0,0,0,2.26-.5A2.83,2.83,0,0,0,35.39,194l.76-4.9a2.71,2.71,0,0,0,0-.41.67.67,0,0,0-.06-.32.52.52,0,0,0-.26-.29,2.36,2.36,0,0,0-.67-.18,1.11,1.11,0,0,0-.69.07.71.71,0,0,0-.32.47,1.53,1.53,0,0,0-.16-.26,1.65,1.65,0,0,0-.42-.35,1.77,1.77,0,0,0-.71-.26,2.63,2.63,0,0,0-2,.62,3,3,0,0,0-1.19,2,3,3,0,0,0,.53,2.25,2.56,2.56,0,0,0,1.71,1.19,1.7,1.7,0,0,0,1.52-.37Zm-1.29-3.77a1,1,0,0,1,.8-.2.91.91,0,0,1,.68.43,1.15,1.15,0,0,1,.17.75,1,1,0,0,1-.4.64.9.9,0,0,1-.76.2,1,1,0,0,1-.88-1.16A1,1,0,0,1,32.09,189.87Z"/><path class="l" d="M40.9,194.27a1.37,1.37,0,0,1-.33.85.92.92,0,0,1-.76.33,2,2,0,0,1-1.22-.5.62.62,0,0,0-.35-.16.48.48,0,0,0-.29.09,2.83,2.83,0,0,0-.37.33,1.17,1.17,0,0,0-.4.81c0,.24.26.52.8.84a3.64,3.64,0,0,0,1.72.52,3.23,3.23,0,0,0,2.19-.75,2.85,2.85,0,0,0,1-2.19l.22-5v-.41a.92.92,0,0,0-.1-.31.5.5,0,0,0-.29-.26,2.45,2.45,0,0,0-.68-.1,1.11,1.11,0,0,0-.69.15.77.77,0,0,0-.27.49,1.49,1.49,0,0,0-.18-.24,1.58,1.58,0,0,0-.45-.29,1.79,1.79,0,0,0-.74-.18,2.57,2.57,0,0,0-2,.84,3.06,3.06,0,0,0-.19,4.28,2.55,2.55,0,0,0,1.83,1,1.68,1.68,0,0,0,1.47-.54Zm-1.7-3.6a.94.94,0,0,1,.77-.29.9.9,0,0,1,.73.36,1.07,1.07,0,0,1,.25.72,1,1,0,0,1-.32.68,1,1,0,0,1-.74.29,1,1,0,0,1-.73-.35,1,1,0,0,1-.28-.71A1.1,1.1,0,0,1,39.2,190.67Z"/><path class="l" d="M46.16,189.08,46,186.43a3,3,0,0,0,0-.41,1.15,1.15,0,0,0-.14-.31c-.12-.21-.43-.29-.93-.26s-.81.16-.91.39a.79.79,0,0,0-.08.31,3.07,3.07,0,0,0,0,.41l.49,7.16c0,.19,0,.33,0,.42a1.09,1.09,0,0,0,.13.31c.12.2.44.29.94.26s.81-.16.9-.38a.74.74,0,0,0,.09-.32,2.06,2.06,0,0,0,0-.42l-.15-2.32a.87.87,0,0,1,.33-.61,1.18,1.18,0,0,1,.73-.31,1,1,0,0,1,.72.23,1,1,0,0,1,.32.75l.15,2.09a2.67,2.67,0,0,0,0,.43.83.83,0,0,0,.13.32c.14.2.45.28.93.25s.81-.16.9-.38a.74.74,0,0,0,.09-.32,2.07,2.07,0,0,0,0-.42l-.14-2.1a3.32,3.32,0,0,0-.95-2.18,2.55,2.55,0,0,0-2.05-.77A1.75,1.75,0,0,0,46.16,189.08Z"/><path class="l" d="M56.92,188a2.71,2.71,0,0,0-2.61-.74,3.5,3.5,0,0,0-2.25,1.31,3.15,3.15,0,0,0-.55,2.55,3.45,3.45,0,0,0,1.12,2,2.74,2.74,0,0,0,1.2.62,3.93,3.93,0,0,0,1.61,0c1.67-.3,2.45-.8,2.33-1.5a1.32,1.32,0,0,0-.25-.51c-.24-.33-.49-.47-.74-.42a1.11,1.11,0,0,0-.45.21l-.12.07a3.42,3.42,0,0,1-1.05.33,1.47,1.47,0,0,1-.82-.09.65.65,0,0,1-.49-.48l2.8-.49a1.21,1.21,0,0,0,.74-.49,1.49,1.49,0,0,0,.17-1.14A2.45,2.45,0,0,0,56.92,188Zm-3.28,2.31a.88.88,0,0,1,.26-.73,1.24,1.24,0,0,1,.71-.45,1,1,0,0,1,.62.07.52.52,0,0,1,.28.4c0,.25-.09.4-.38.45Z"/><path class="l" d="M61.65,186.1a1.69,1.69,0,0,0-.52-.14,1.94,1.94,0,0,0-.75.06,2.66,2.66,0,0,0-1.65,1.43,3.16,3.16,0,0,0,1.16,4.24,2.65,2.65,0,0,0,2.11.41,1.72,1.72,0,0,0,1.26-1,.62.62,0,0,0,.37.39,1.61,1.61,0,0,0,.89-.07c.42-.12.66-.29.71-.52a1,1,0,0,0,0-.34,2.82,2.82,0,0,0-.09-.4L64,186.1c-.05-.18-.09-.31-.12-.4a1.23,1.23,0,0,0-.19-.27.49.49,0,0,0-.37-.16,2.49,2.49,0,0,0-.7.11c-.56.16-.8.46-.73.9A2.27,2.27,0,0,0,61.65,186.1Zm-1.08,2.38a1,1,0,0,1,.65-.53.94.94,0,0,1,.82.13,1,1,0,0,1,.46.62,1.05,1.05,0,0,1-.09.77,1,1,0,0,1-.63.51,1,1,0,0,1-.81-.11,1,1,0,0,1-.49-.61A1.08,1.08,0,0,1,60.57,188.48Z"/><path class="l" d="M67.39,181.12q0,.13.15.39l1,2.31a1.67,1.67,0,0,0-1.51,0,2.67,2.67,0,0,0-1.41,1.66,3.15,3.15,0,0,0,1.76,4,2.69,2.69,0,0,0,2.18.07,1.76,1.76,0,0,0,1-1.09c.22.33.58.39,1.09.16s.78-.46.8-.7a.86.86,0,0,0,0-.33,1.81,1.81,0,0,0-.15-.38l-2.88-6.56a2.81,2.81,0,0,0-.18-.38.85.85,0,0,0-.23-.24.51.51,0,0,0-.39-.11,2.19,2.19,0,0,0-.58.18,2,2,0,0,0-.53.31.5.5,0,0,0-.19.35A1.12,1.12,0,0,0,67.39,181.12Zm.24,5.89a1,1,0,0,1,0-.78,1,1,0,0,1,1.4-.61,1.07,1.07,0,0,1,.55.56,1,1,0,0,1,0,.77,1,1,0,0,1-.54.59,1.07,1.07,0,0,1-1.4-.53Z"/><path class="l" d="M73.09,177.81q.06.12.21.36l1.38,2.1a1.71,1.71,0,0,0-1.48.26,2.68,2.68,0,0,0-1.13,1.87,3.16,3.16,0,0,0,.46,2.33,3.11,3.11,0,0,0,2,1.35,2.68,2.68,0,0,0,2.16-.29,1.78,1.78,0,0,0,.86-1.25c.27.29.64.28,1.1,0s.69-.58.67-.83a1,1,0,0,0-.07-.32A3.5,3.5,0,0,0,79,183l-3.93-6a2.92,2.92,0,0,0-.24-.34,1.05,1.05,0,0,0-.27-.21.5.5,0,0,0-.4,0,2,2,0,0,0-.55.27,2.15,2.15,0,0,0-.46.39.49.49,0,0,0-.14.38A1.12,1.12,0,0,0,73.09,177.81Zm1.2,5.77a1.09,1.09,0,0,1-.15-.76,1,1,0,0,1,.46-.7.94.94,0,0,1,.82-.13,1.06,1.06,0,0,1,.63.45,1,1,0,0,1,.15.76,1,1,0,0,1-.44.67A1.05,1.05,0,0,1,75,184,1.07,1.07,0,0,1,74.29,183.58Z"/><path class="l" d="M81.74,175.22a2.73,2.73,0,0,0-2.63.69,3.45,3.45,0,0,0-1.28,2.27,3.17,3.17,0,0,0,.82,2.48,3.48,3.48,0,0,0,2,1.17,2.74,2.74,0,0,0,1.35-.08,3.88,3.88,0,0,0,1.4-.79c1.3-1.1,1.72-1.92,1.26-2.47a1.47,1.47,0,0,0-.48-.32.79.79,0,0,0-.85,0,1.16,1.16,0,0,0-.28.41l-.07.12a3.48,3.48,0,0,1-.74.82,1.62,1.62,0,0,1-.75.34.67.67,0,0,1-.67-.18L83,177.86a1.18,1.18,0,0,0,.39-.79,1.46,1.46,0,0,0-.43-1.07A2.51,2.51,0,0,0,81.74,175.22Zm-1.67,3.67a.92.92,0,0,1-.14-.77,1.17,1.17,0,0,1,.38-.74.91.91,0,0,1,.57-.26.53.53,0,0,1,.45.2c.16.19.13.39-.1.59Z"/><path class="l" d="M83.06,169.12a3.1,3.1,0,0,0,.28.3l1.81,1.76a1.64,1.64,0,0,0-1.39.57,2.64,2.64,0,0,0-.69,2.07,3.16,3.16,0,0,0,3.15,3.06,2.63,2.63,0,0,0,2-.75,1.76,1.76,0,0,0,.56-1.41c.33.23.68.14,1.07-.26s.55-.71.48-1a1.4,1.4,0,0,0-.14-.3l-.29-.3-5.14-5a2,2,0,0,0-.31-.27.84.84,0,0,0-.3-.15.49.49,0,0,0-.4.06,2,2,0,0,0-.48.38,2.22,2.22,0,0,0-.37.48.52.52,0,0,0,0,.4A.84.84,0,0,0,83.06,169.12Zm2.43,5.37a1.14,1.14,0,0,1-.32-.71,1,1,0,0,1,.3-.78,1,1,0,0,1,.77-.32A1.14,1.14,0,0,1,87,173a1,1,0,0,1,.31.71,1,1,0,0,1-.28.75,1.09,1.09,0,0,1-1.5,0Z"/></g><g class="b"><path class="l" d="M160.36,20.16a8.51,8.51,0,0,0-1.56,5c-.08,3,1.15,5.89,2.18,8.75s-3.52,12.18,8,14.58c1.72.36,3.58-.46,5.28.24.66.28,1.13.8,1.76,1.08a15.16,15.16,0,0,0,3,.67,20,20,0,0,0,10.63-.79A14,14,0,0,0,198,42.44c1.09-2.18,2.13-4.59,2-7.06s-.82-3.65-1-6.1c-.15-1.63,0-3.27-.08-4.91-.25-3.9-2.32-8.75-5.77-11.07-2-1.32-4.74-.94-7-1.33-3-.53-5.61-2.22-8.72-2.5s-6.34.55-8.27,2.83A42.73,42.73,0,0,0,166.85,16c-1.16,1.72-2.64,2.12-4.51,2.76A4.36,4.36,0,0,0,160.36,20.16Z"/><path class="m" d="M187.79,35.93A10,10,0,1,1,185,22.35,9.81,9.81,0,0,1,187.79,35.93Z"/><path class="l" d="M185.14,22.72a8.64,8.64,0,1,0,2.49,12.19A8.81,8.81,0,0,0,185.14,22.72Zm-1.27-.06s5,1.81,4.55,8.08C188.42,30.74,187.43,24.55,183.87,22.66Z"/><path class="l" d="M177.54,36.13A8.8,8.8,0,0,1,175,23.94a8.38,8.38,0,0,1,2.85-2.59,8.46,8.46,0,0,0-5.26,3.48A8.8,8.8,0,0,0,175.13,37a9,9,0,0,0,9.42.54A9.09,9.09,0,0,1,177.54,36.13Z"/></g><path class="f" d="M160.3,18.7a8.92,8.92,0,0,0-1.71,5.1c-.17,3.06,1,6,1.95,8.93s-3.89,12.48,7.64,14.87c1.73.36,3.64-.5,5.34.21.65.27,1.11.81,1.74,1.09a13.94,13.94,0,0,0,3,.66A20.2,20.2,0,0,0,189,48.7a14.83,14.83,0,0,0,8.61-7.45c1.16-2.24,2.28-4.71,2.26-7.24s-.73-3.72-.88-6.22c-.1-1.68.11-3.36.06-5-.14-4-2.1-8.94-5.51-11.28-2-1.34-4.77-.93-7-1.32-3-.52-5.6-2.23-8.73-2.5s-6.42.6-8.43,2.95A42.66,42.66,0,0,0,167,14.42c-1.22,1.76-2.72,2.18-4.63,2.84A4.56,4.56,0,0,0,160.3,18.7Z"/><path class="i" d="M181.19,19.14a10,10,0,1,1-11.58,8A10,10,0,0,1,181.19,19.14Z"/><path class="j" d="M169.89,26.88a8.94,8.94,0,1,0,10.4-7.19A9,9,0,0,0,169.89,26.88Zm.49,1.18s-.46-5.35,5.66-7.42C176,20.64,170.63,24,170.38,28.06Z"/><path class="k" d="M185.76,28.43a8.93,8.93,0,0,1-14,5.62A8.94,8.94,0,1,0,184.1,21.44,8.88,8.88,0,0,1,185.76,28.43Z"/><g class="g"><path class="l" d="M120.18,57.9l1.52,1.79a2.08,2.08,0,0,0,.46.43c.27.17.62.07,1-.29s.56-.62.5-.85a1,1,0,0,0-.12-.32,2.85,2.85,0,0,0-.25-.33l-1.54-1.81.92-.78,2.39,2.8a1.72,1.72,0,0,0,.46.43c.26.16.61.06,1-.3s.56-.61.51-.85a1.07,1.07,0,0,0-.12-.32,3.35,3.35,0,0,0-.26-.32l-3.06-3.6a1.26,1.26,0,0,0-.73-.52,1.14,1.14,0,0,0-.78.37l-5.08,4.32a1.77,1.77,0,0,0-.42.46c-.17.27-.08.61.29,1L120,62.87a2.14,2.14,0,0,0,.46.43c.26.16.61.06,1-.3s.56-.62.51-.86a1,1,0,0,0-.12-.31,3.21,3.21,0,0,0-.26-.33l-2.39-2.81Z"/><path class="l" d="M125.16,67.07a1.36,1.36,0,0,1-.79.47.93.93,0,0,1-.8-.21,2,2,0,0,1-.65-1.16.58.58,0,0,0-.17-.33.53.53,0,0,0-.29-.12,2.39,2.39,0,0,0-.49,0,1.16,1.16,0,0,0-.81.39c-.16.19-.13.57.1,1.15a3.51,3.51,0,0,0,1,1.48,3.21,3.21,0,0,0,2.18.77,2.84,2.84,0,0,0,2.18-1.06l3.25-3.77a2.94,2.94,0,0,0,.25-.32.85.85,0,0,0,.12-.3.5.5,0,0,0-.07-.39,2.8,2.8,0,0,0-.47-.5,1.14,1.14,0,0,0-.63-.31.72.72,0,0,0-.52.23,1.6,1.6,0,0,0,0-.31,1.49,1.49,0,0,0-.17-.51,1.86,1.86,0,0,0-.46-.6,2.62,2.62,0,0,0-2.06-.55,3.06,3.06,0,0,0-2.81,3.24,2.6,2.6,0,0,0,.82,1.92,1.72,1.72,0,0,0,1.49.49Zm.9-3.88a1,1,0,0,1,.78.25.91.91,0,0,1,.35.74,1.08,1.08,0,0,1-.25.71,1,1,0,0,1-.68.34.91.91,0,0,1-.75-.23,1,1,0,0,1-.36-.72,1,1,0,0,1,.22-.73A1.06,1.06,0,0,1,126.06,63.19Z"/><path class="l" d="M131.62,71.52a1.32,1.32,0,0,1-.69.59.91.91,0,0,1-.82-.06,2,2,0,0,1-.85-1,.49.49,0,0,0-.23-.3.45.45,0,0,0-.3-.07,2.7,2.7,0,0,0-.48.12,1.12,1.12,0,0,0-.73.53q-.18.31.3,1.11a3.62,3.62,0,0,0,1.28,1.27,3.16,3.16,0,0,0,2.29.37,2.82,2.82,0,0,0,2-1.43l2.53-4.27a3.4,3.4,0,0,0,.19-.36,1,1,0,0,0,.07-.32.54.54,0,0,0-.14-.37,2.41,2.41,0,0,0-.55-.41,1.14,1.14,0,0,0-.68-.2.76.76,0,0,0-.47.32,1.17,1.17,0,0,0,0-.3,1.66,1.66,0,0,0-.26-.48,1.7,1.7,0,0,0-.56-.5,2.6,2.6,0,0,0-2.12-.19A3.05,3.05,0,0,0,129.45,67a3,3,0,0,0-.34,2.29A2.54,2.54,0,0,0,130.25,71a1.69,1.69,0,0,0,1.55.23Zm.2-4a1,1,0,0,1,.82.1.9.9,0,0,1,.47.67,1.06,1.06,0,0,1-.12.75,1,1,0,0,1-.6.45,1,1,0,0,1-.79-.1,1.05,1.05,0,0,1-.39-1.4A1.07,1.07,0,0,1,131.82,67.54Z"/><path class="l" d="M138.79,69.22l.88-2.5a3.68,3.68,0,0,0,.12-.39.79.79,0,0,0,0-.34c0-.24-.27-.44-.75-.61s-.81-.17-1,0a1.1,1.1,0,0,0-.2.25,3.27,3.27,0,0,0-.15.39l-2.38,6.77c-.06.18-.1.31-.12.4a1.15,1.15,0,0,0,0,.33c0,.24.29.44.77.61s.8.17,1,0a.92.92,0,0,0,.21-.26,2,2,0,0,0,.16-.39l.77-2.19a.89.89,0,0,1,.54-.43,1.16,1.16,0,0,1,.8,0,.93.93,0,0,1,.57.49,1.06,1.06,0,0,1,0,.82l-.69,2a2.92,2.92,0,0,0-.13.41,1,1,0,0,0,0,.34c0,.24.3.44.76.6s.81.17,1,0a1,1,0,0,0,.22-.26,3.27,3.27,0,0,0,.15-.39l.7-2a3.28,3.28,0,0,0,0-2.37A2.53,2.53,0,0,0,140.35,69,1.78,1.78,0,0,0,138.79,69.22Z"/><path class="l" d="M149.19,72A2.68,2.68,0,0,0,147,70.42a3.43,3.43,0,0,0-2.55.52,3.13,3.13,0,0,0-1.33,2.24,3.49,3.49,0,0,0,.42,2.27,2.65,2.65,0,0,0,.93,1,3.92,3.92,0,0,0,1.52.54c1.68.26,2.58,0,2.69-.67a1.38,1.38,0,0,0-.07-.57c-.13-.38-.32-.59-.58-.63a1.16,1.16,0,0,0-.49.06l-.14,0a3.16,3.16,0,0,1-1.1,0,1.61,1.61,0,0,1-.75-.35.63.63,0,0,1-.3-.61l2.81.43a1.13,1.13,0,0,0,.85-.23,1.48,1.48,0,0,0,.53-1A2.44,2.44,0,0,0,149.19,72Zm-3.85,1.14a.87.87,0,0,1,.48-.61,1.21,1.21,0,0,1,.81-.19.89.89,0,0,1,.57.25.54.54,0,0,1,.14.47c0,.26-.21.36-.51.31Z"/><path class="l" d="M154.25,71.36a1.67,1.67,0,0,0-.48-.26A1.79,1.79,0,0,0,153,71a2.64,2.64,0,0,0-1.93,1,3.09,3.09,0,0,0-.84,2.22,3.18,3.18,0,0,0,.95,2.18,2.63,2.63,0,0,0,2,.89,1.67,1.67,0,0,0,1.46-.67.64.64,0,0,0,.27.46,1.61,1.61,0,0,0,.88.14c.44,0,.71-.12.82-.33a1.21,1.21,0,0,0,.09-.32c0-.09,0-.23,0-.42l-.11-4.19q0-.29,0-.42a1,1,0,0,0-.12-.31.52.52,0,0,0-.32-.25,2.66,2.66,0,0,0-.7,0c-.58,0-.89.25-.93.7A1.6,1.6,0,0,0,154.25,71.36Zm-1.62,2a1,1,0,0,1,.76-.36,1,1,0,0,1,.76.32,1.1,1.1,0,0,1,.3.72,1,1,0,0,1-.27.72.94.94,0,0,1-.73.34,1.06,1.06,0,0,1-1.1-1A1.14,1.14,0,0,1,152.63,73.41Z"/><path class="l" d="M160.88,67.66a2.1,2.1,0,0,0,.06.41l.5,2.47a1.67,1.67,0,0,0-1.47-.32,2.71,2.71,0,0,0-1.73,1.32,3.14,3.14,0,0,0-.44,2.34,3.11,3.11,0,0,0,1.31,2,2.64,2.64,0,0,0,2.12.53,1.76,1.76,0,0,0,1.26-.84c.14.37.48.5,1,.39s.85-.28.93-.52a1,1,0,0,0,.05-.32,3.89,3.89,0,0,0-.07-.41l-1.43-7a3.77,3.77,0,0,0-.1-.4,1,1,0,0,0-.17-.29.49.49,0,0,0-.36-.19,2.36,2.36,0,0,0-.61,0,2.31,2.31,0,0,0-.58.19.49.49,0,0,0-.26.31A.8.8,0,0,0,160.88,67.66Zm-1,5.81a1.06,1.06,0,0,1,.14-.77.93.93,0,0,1,.69-.48,1,1,0,0,1,.81.18,1,1,0,0,1,.28,1.41,1,1,0,0,1-.66.47,1,1,0,0,1-.81-.17A1,1,0,0,1,159.86,73.47Z"/><path class="l" d="M167.28,65.74c0,.09.06.22.12.4l.82,2.38a1.7,1.7,0,0,0-1.5-.12,2.68,2.68,0,0,0-1.54,1.54,3.1,3.1,0,0,0-.13,2.37,3.16,3.16,0,0,0,1.56,1.79,2.65,2.65,0,0,0,2.17.24,1.75,1.75,0,0,0,1.14-1c.19.35.54.43,1.07.25s.81-.39.85-.64a.7.7,0,0,0,0-.32,3.7,3.7,0,0,0-.12-.4l-2.35-6.77a3.75,3.75,0,0,0-.15-.38.94.94,0,0,0-.2-.27.52.52,0,0,0-.39-.13,1.66,1.66,0,0,0-.59.13,2.18,2.18,0,0,0-.55.26.52.52,0,0,0-.22.34A.91.91,0,0,0,167.28,65.74ZM167,71.63a1.11,1.11,0,0,1,0-.78,1,1,0,0,1,.62-.56.93.93,0,0,1,.83.07A1.16,1.16,0,0,1,169,71a1,1,0,0,1-.05.77,1,1,0,0,1-.59.55,1,1,0,0,1-.82-.06A1,1,0,0,1,167,71.63Z"/><path class="l" d="M176.38,65.47a2.74,2.74,0,0,0-2.71,0,3.47,3.47,0,0,0-1.84,1.85,3.16,3.16,0,0,0,.13,2.61,3.46,3.46,0,0,0,1.6,1.65,2.61,2.61,0,0,0,1.31.28,3.65,3.65,0,0,0,1.56-.38c1.55-.72,2.17-1.4,1.87-2a1.18,1.18,0,0,0-.37-.44.79.79,0,0,0-.83-.21,1.26,1.26,0,0,0-.38.32l-.1.1a3.11,3.11,0,0,1-.93.59,1.54,1.54,0,0,1-.81.12.66.66,0,0,1-.6-.34l2.58-1.2a1.11,1.11,0,0,0,.59-.66,1.44,1.44,0,0,0-.13-1.14A2.43,2.43,0,0,0,176.38,65.47Zm-2.58,3.09a.88.88,0,0,1,.07-.78,1.2,1.2,0,0,1,.56-.61.91.91,0,0,1,.62-.1.56.56,0,0,1,.38.31c.1.23,0,.41-.25.54Z"/><path class="l" d="M179.38,60a2.63,2.63,0,0,0,.19.37l1.23,2.19a1.7,1.7,0,0,0-1.49.16,2.68,2.68,0,0,0-1.25,1.79,3.14,3.14,0,0,0,2.16,3.83,2.65,2.65,0,0,0,2.17-.14,1.74,1.74,0,0,0,.94-1.19c.25.31.62.32,1.1.05s.73-.53.73-.78a.93.93,0,0,0,0-.32c0-.09-.1-.21-.19-.37l-3.52-6.24a2.47,2.47,0,0,0-.22-.35,1,1,0,0,0-.25-.23.53.53,0,0,0-.4-.06,2.13,2.13,0,0,0-.56.23,2.21,2.21,0,0,0-.49.36.49.49,0,0,0-.16.37A.78.78,0,0,0,179.38,60Zm.82,5.84a1.07,1.07,0,0,1-.11-.77,1,1,0,0,1,.51-.67.94.94,0,0,1,.83-.08,1.14,1.14,0,0,1,.6.49,1,1,0,0,1,.09.77,1,1,0,0,1-.48.65,1,1,0,0,1-.82.08A1,1,0,0,1,180.2,65.82Z"/></g><path class="n" d="M150.72,30.7c-.37,12-7.58,17.06-16.26,16.79s-15.56-5.77-15.19-17.77,7.86-26,16.54-25.72,15.28,14.69,14.91,26.7Z"/><path class="o" d="M150.72,30.7c-.37,12-7.58,17.06-16.26,16.79s-15.56-5.77-15.19-17.77,7.86-26,16.54-25.72,15.28,14.69,14.91,26.7Z"/><path class="p" d="M107.78,85.87c3.81,8.47.51,14.43-5.62,17.18s-12.77,1.26-16.57-7.21-3.34-20.73,2.78-23.48,15.6,5,19.41,13.51Z"/><path class="q" d="M107.78,85.87c3.81,8.47.51,14.43-5.62,17.18s-12.77,1.26-16.57-7.21-3.34-20.73,2.78-23.48,15.6,5,19.41,13.51Z"/><path class="r" d="M191.57,130.3c-5.75,9.69-14,10.58-21,6.42s-10.16-11.81-4.4-21.5,18.25-17.77,25.25-13.61,5.89,19,.13,28.69Z"/><path class="s" d="M191.57,130.3c-5.75,9.69-14,10.58-21,6.42s-10.16-11.81-4.4-21.5,18.25-17.77,25.25-13.61,5.89,19,.13,28.69Z"/><g class="b"><path class="l" d="M-39.64,20.16a8.51,8.51,0,0,0-1.56,5c-.08,3,1.15,5.89,2.18,8.75s-3.52,12.18,8,14.58c1.72.36,3.58-.46,5.28.24.66.28,1.13.8,1.76,1.08a15.16,15.16,0,0,0,3,.67,20,20,0,0,0,10.63-.79A14,14,0,0,0-2,42.44c1.09-2.18,2.13-4.59,2-7.06s-.82-3.65-1-6.1c-.15-1.63,0-3.27-.08-4.91-.25-3.9-2.32-8.75-5.77-11.07-2-1.32-4.74-.94-6.95-1.33-3-.53-5.61-2.22-8.72-2.5s-6.34.55-8.27,2.83A42.73,42.73,0,0,0-33.15,16c-1.16,1.72-2.64,2.12-4.51,2.76A4.36,4.36,0,0,0-39.64,20.16Z"/></g><g class="g"><path class="l" d="M-79.82,57.9l1.52,1.79a2.08,2.08,0,0,0,.46.43c.27.17.62.07,1-.29s.56-.62.5-.85a1,1,0,0,0-.12-.32,2.85,2.85,0,0,0-.25-.33l-1.54-1.81.92-.78,2.39,2.8a1.72,1.72,0,0,0,.46.43c.26.16.61.06,1-.3s.56-.61.51-.85A1.07,1.07,0,0,0-73,57.5a3.35,3.35,0,0,0-.26-.32l-3.06-3.6a1.26,1.26,0,0,0-.73-.52,1.14,1.14,0,0,0-.78.37l-5.08,4.32a1.77,1.77,0,0,0-.42.46c-.17.27-.08.61.29,1L-80,62.87a2.14,2.14,0,0,0,.46.43c.26.16.61.06,1-.3s.56-.62.51-.86a1,1,0,0,0-.12-.31,3.21,3.21,0,0,0-.26-.33l-2.39-2.81Z"/><path class="l" d="M-74.84,67.07a1.36,1.36,0,0,1-.79.47.93.93,0,0,1-.8-.21,2,2,0,0,1-.65-1.16.58.58,0,0,0-.17-.33.53.53,0,0,0-.29-.12,2.39,2.39,0,0,0-.49,0,1.16,1.16,0,0,0-.81.39c-.16.19-.13.57.1,1.15a3.51,3.51,0,0,0,1,1.48,3.21,3.21,0,0,0,2.18.77,2.84,2.84,0,0,0,2.18-1.06l3.25-3.77a2.94,2.94,0,0,0,.25-.32.85.85,0,0,0,.12-.3.5.5,0,0,0-.07-.39,2.8,2.8,0,0,0-.47-.5,1.14,1.14,0,0,0-.63-.31.72.72,0,0,0-.52.23,1.6,1.6,0,0,0,0-.31,1.49,1.49,0,0,0-.17-.51,1.86,1.86,0,0,0-.46-.6,2.62,2.62,0,0,0-2.06-.55,3,3,0,0,0-2.07,1.05,3,3,0,0,0-.74,2.19,2.6,2.6,0,0,0,.82,1.92,1.72,1.72,0,0,0,1.49.49Zm.9-3.88a1,1,0,0,1,.78.25.91.91,0,0,1,.35.74,1.08,1.08,0,0,1-.25.71,1,1,0,0,1-.68.34.91.91,0,0,1-.75-.23,1,1,0,0,1-.36-.72,1,1,0,0,1,.22-.73A1.06,1.06,0,0,1-73.94,63.19Z"/><path class="l" d="M-68.38,71.52a1.32,1.32,0,0,1-.69.59.91.91,0,0,1-.82-.06,2,2,0,0,1-.85-1,.49.49,0,0,0-.23-.3.45.45,0,0,0-.3-.07,2.7,2.7,0,0,0-.48.12,1.12,1.12,0,0,0-.73.53q-.18.31.3,1.11a3.62,3.62,0,0,0,1.28,1.27,3.16,3.16,0,0,0,2.29.37,2.82,2.82,0,0,0,2-1.43l2.53-4.27a3.4,3.4,0,0,0,.19-.36,1,1,0,0,0,.07-.32.54.54,0,0,0-.14-.37,2.41,2.41,0,0,0-.55-.41,1.14,1.14,0,0,0-.68-.2.76.76,0,0,0-.47.32,1.17,1.17,0,0,0-.05-.3,1.66,1.66,0,0,0-.26-.48,1.7,1.7,0,0,0-.56-.5,2.6,2.6,0,0,0-2.12-.19A3.05,3.05,0,0,0-70.55,67a3,3,0,0,0-.34,2.29A2.54,2.54,0,0,0-69.75,71a1.69,1.69,0,0,0,1.55.23Zm.2-4a1,1,0,0,1,.82.1.9.9,0,0,1,.47.67,1.06,1.06,0,0,1-.12.75,1,1,0,0,1-.6.45,1,1,0,0,1-.79-.1,1,1,0,0,1-.48-.64,1,1,0,0,1,.09-.76A1.07,1.07,0,0,1-68.18,67.54Z"/><path class="l" d="M-61.21,69.22l.88-2.5a3.68,3.68,0,0,0,.12-.39.79.79,0,0,0,0-.34c0-.24-.27-.44-.75-.61s-.81-.17-1,0a1.1,1.1,0,0,0-.2.25,3.27,3.27,0,0,0-.15.39l-2.38,6.77c-.06.18-.1.31-.12.4a1.15,1.15,0,0,0,0,.33c0,.24.29.44.77.61s.8.17,1,0a.92.92,0,0,0,.21-.26,2,2,0,0,0,.16-.39l.77-2.19a.89.89,0,0,1,.54-.43,1.16,1.16,0,0,1,.8,0,.93.93,0,0,1,.57.49,1.06,1.06,0,0,1,0,.82l-.69,2a2.92,2.92,0,0,0-.13.41,1,1,0,0,0,0,.34c.05.24.3.44.76.6s.81.17,1,0a1,1,0,0,0,.22-.26,3.27,3.27,0,0,0,.15-.39l.7-2a3.28,3.28,0,0,0,0-2.37A2.53,2.53,0,0,0-59.65,69,1.78,1.78,0,0,0-61.21,69.22Z"/><path class="l" d="M-50.81,72A2.68,2.68,0,0,0-53,70.42a3.43,3.43,0,0,0-2.55.52,3.13,3.13,0,0,0-1.33,2.24,3.49,3.49,0,0,0,.42,2.27,2.65,2.65,0,0,0,.93,1,3.92,3.92,0,0,0,1.52.54c1.68.26,2.58,0,2.69-.67a1.38,1.38,0,0,0-.07-.57c-.13-.38-.32-.59-.58-.63a1.16,1.16,0,0,0-.49.06l-.14,0a3.16,3.16,0,0,1-1.1,0,1.61,1.61,0,0,1-.75-.35.63.63,0,0,1-.3-.61l2.81.43a1.13,1.13,0,0,0,.85-.23,1.48,1.48,0,0,0,.53-1A2.44,2.44,0,0,0-50.81,72Zm-3.85,1.14a.87.87,0,0,1,.48-.61,1.21,1.21,0,0,1,.81-.19.89.89,0,0,1,.57.25.54.54,0,0,1,.14.47c0,.26-.21.36-.51.31Z"/><path class="l" d="M-45.75,71.36a1.67,1.67,0,0,0-.48-.26A1.79,1.79,0,0,0-47,71a2.64,2.64,0,0,0-1.93,1,3.09,3.09,0,0,0-.84,2.22,3.18,3.18,0,0,0,1,2.18,2.63,2.63,0,0,0,1.95.89,1.67,1.67,0,0,0,1.46-.67.64.64,0,0,0,.27.46,1.61,1.61,0,0,0,.88.14c.44,0,.71-.12.82-.33a1.21,1.21,0,0,0,.09-.32c0-.09,0-.23,0-.42l-.11-4.19q0-.29,0-.42a1,1,0,0,0-.12-.31A.52.52,0,0,0-43.9,71a2.66,2.66,0,0,0-.7,0c-.58,0-.89.25-.93.7A1.6,1.6,0,0,0-45.75,71.36Zm-1.62,2a1,1,0,0,1,.76-.36,1,1,0,0,1,.76.32,1.1,1.1,0,0,1,.3.72,1,1,0,0,1-.27.72.94.94,0,0,1-.73.34,1,1,0,0,1-.77-.29,1,1,0,0,1-.33-.71A1.14,1.14,0,0,1-47.37,73.41Z"/><path class="l" d="M-39.12,67.66a2.1,2.1,0,0,0,.06.41l.5,2.47A1.67,1.67,0,0,0-40,70.22a2.71,2.71,0,0,0-1.73,1.32,3.14,3.14,0,0,0-.44,2.34,3.11,3.11,0,0,0,1.31,2,2.64,2.64,0,0,0,2.12.53,1.76,1.76,0,0,0,1.26-.84c.14.37.48.5,1,.39s.85-.28.93-.52a1,1,0,0,0,0-.32,3.89,3.89,0,0,0-.07-.41l-1.43-7a3.77,3.77,0,0,0-.1-.4,1,1,0,0,0-.17-.29.49.49,0,0,0-.36-.19,2.36,2.36,0,0,0-.61,0,2.31,2.31,0,0,0-.58.19.49.49,0,0,0-.26.31A.8.8,0,0,0-39.12,67.66Zm-1,5.81A1.06,1.06,0,0,1-40,72.7a.93.93,0,0,1,.69-.48,1,1,0,0,1,.81.18,1.09,1.09,0,0,1,.42.65,1.09,1.09,0,0,1-.14.76,1,1,0,0,1-.66.47,1,1,0,0,1-.81-.17A1,1,0,0,1-40.14,73.47Z"/><path class="l" d="M-32.72,65.74c0,.09.06.22.12.4l.82,2.38a1.7,1.7,0,0,0-1.5-.12,2.68,2.68,0,0,0-1.54,1.54,3.1,3.1,0,0,0-.13,2.37,3.16,3.16,0,0,0,1.56,1.79,2.65,2.65,0,0,0,2.17.24,1.75,1.75,0,0,0,1.14-1c.19.35.54.43,1.07.25s.81-.39.85-.64a.7.7,0,0,0,0-.32,3.7,3.7,0,0,0-.12-.4l-2.35-6.77a3.75,3.75,0,0,0-.15-.38.94.94,0,0,0-.2-.27.52.52,0,0,0-.39-.13,1.66,1.66,0,0,0-.59.13,2.18,2.18,0,0,0-.55.26.52.52,0,0,0-.22.34A.91.91,0,0,0-32.72,65.74ZM-33,71.63a1.11,1.11,0,0,1,0-.78,1,1,0,0,1,.62-.56.93.93,0,0,1,.83.07A1.16,1.16,0,0,1-31,71a1,1,0,0,1-.05.77,1,1,0,0,1-.59.55,1,1,0,0,1-.82-.06A1,1,0,0,1-33,71.63Z"/><path class="l" d="M-23.62,65.47a2.74,2.74,0,0,0-2.71,0,3.47,3.47,0,0,0-1.84,1.85A3.16,3.16,0,0,0-28,69.89a3.46,3.46,0,0,0,1.6,1.65,2.61,2.61,0,0,0,1.31.28,3.65,3.65,0,0,0,1.56-.38c1.55-.72,2.17-1.4,1.87-2a1.18,1.18,0,0,0-.37-.44.79.79,0,0,0-.83-.21,1.26,1.26,0,0,0-.38.32l-.1.1a3.11,3.11,0,0,1-.93.59,1.54,1.54,0,0,1-.81.12.66.66,0,0,1-.6-.34l2.58-1.2a1.11,1.11,0,0,0,.59-.66,1.44,1.44,0,0,0-.13-1.14A2.43,2.43,0,0,0-23.62,65.47Zm-2.58,3.09a.88.88,0,0,1,.07-.78,1.2,1.2,0,0,1,.56-.61.91.91,0,0,1,.62-.1.56.56,0,0,1,.38.31c.1.23,0,.41-.25.54Z"/><path class="l" d="M-20.62,60a2.63,2.63,0,0,0,.19.37l1.23,2.19a1.7,1.7,0,0,0-1.49.16,2.68,2.68,0,0,0-1.25,1.79,3.12,3.12,0,0,0,.3,2.36,3.12,3.12,0,0,0,1.86,1.47,2.65,2.65,0,0,0,2.17-.14A1.74,1.74,0,0,0-16.67,67c.25.31.62.32,1.1.05s.73-.53.73-.78a.93.93,0,0,0-.05-.32c0-.09-.1-.21-.19-.37l-3.52-6.24a2.47,2.47,0,0,0-.22-.35,1,1,0,0,0-.25-.23.53.53,0,0,0-.4-.06,2.13,2.13,0,0,0-.56.23,2.21,2.21,0,0,0-.49.36.49.49,0,0,0-.16.37A.78.78,0,0,0-20.62,60Zm.82,5.84a1.07,1.07,0,0,1-.11-.77,1,1,0,0,1,.51-.67.94.94,0,0,1,.83-.08,1.14,1.14,0,0,1,.6.49,1,1,0,0,1,.09.77,1,1,0,0,1-.48.65,1,1,0,0,1-.82.08A1,1,0,0,1-19.8,65.82Z"/></g><g class="g"><path class="l" d="M24.31-11.26l2.27.61a1.82,1.82,0,0,0,.62.09c.32,0,.55-.29.7-.83s.1-.82-.07-1a1.26,1.26,0,0,0-.28-.19,3.48,3.48,0,0,0-.4-.12l-2.29-.62.31-1.17,3.56,1a2.11,2.11,0,0,0,.62.09q.46,0,.69-.84c.13-.49.11-.82-.07-1a1.26,1.26,0,0,0-.28-.19,3.48,3.48,0,0,0-.4-.12L24.73-16.8a1.3,1.3,0,0,0-.9,0,1.14,1.14,0,0,0-.43.75L21.67-9.62a1.77,1.77,0,0,0-.09.61c0,.32.29.55.83.7L27-7.08a2.11,2.11,0,0,0,.62.09c.31,0,.54-.29.69-.83s.1-.83-.07-1A1,1,0,0,0,28-9a3.14,3.14,0,0,0-.4-.13l-3.57-1Z"/><path class="l" d="M33.38-6.36a1.33,1.33,0,0,1-.42.81.89.89,0,0,1-.79.24A2.06,2.06,0,0,1,31-5.94a.52.52,0,0,0-.32-.19.39.39,0,0,0-.3,0,2.3,2.3,0,0,0-.41.29,1.15,1.15,0,0,0-.48.76c0,.24.2.54.7.92a3.56,3.56,0,0,0,1.65.7,3.13,3.13,0,0,0,2.26-.5A2.83,2.83,0,0,0,35.39-6l.76-4.9a2.71,2.71,0,0,0,0-.41.67.67,0,0,0-.06-.32.52.52,0,0,0-.26-.29,2.36,2.36,0,0,0-.67-.18,1.11,1.11,0,0,0-.69.07.71.71,0,0,0-.32.47,1.53,1.53,0,0,0-.16-.26,1.65,1.65,0,0,0-.42-.35,1.77,1.77,0,0,0-.71-.26,2.63,2.63,0,0,0-2,.62,3,3,0,0,0-1.19,2,3,3,0,0,0,.53,2.25,2.56,2.56,0,0,0,1.71,1.19,1.7,1.7,0,0,0,1.52-.37Zm-1.29-3.77a1,1,0,0,1,.8-.2.91.91,0,0,1,.68.43,1.15,1.15,0,0,1,.17.75,1,1,0,0,1-.4.64.9.9,0,0,1-.76.2,1,1,0,0,1-.69-.42,1,1,0,0,1-.19-.74A1,1,0,0,1,32.09-10.13Z"/><path class="l" d="M40.9-5.73a1.37,1.37,0,0,1-.33.85.92.92,0,0,1-.76.33A2,2,0,0,1,38.59-5a.62.62,0,0,0-.35-.16.48.48,0,0,0-.29.09,2.83,2.83,0,0,0-.37.33,1.17,1.17,0,0,0-.4.81c0,.24.26.52.8.84a3.64,3.64,0,0,0,1.72.52,3.23,3.23,0,0,0,2.19-.75,2.85,2.85,0,0,0,1-2.19l.22-5v-.41a.92.92,0,0,0-.1-.31.5.5,0,0,0-.29-.26,2.45,2.45,0,0,0-.68-.1,1.11,1.11,0,0,0-.69.15.77.77,0,0,0-.27.49A1.49,1.49,0,0,0,41-11.2a1.58,1.58,0,0,0-.45-.29,1.79,1.79,0,0,0-.74-.18,2.57,2.57,0,0,0-2,.84,3,3,0,0,0-1,2.1,3,3,0,0,0,.78,2.18,2.55,2.55,0,0,0,1.83,1,1.68,1.68,0,0,0,1.47-.54Zm-1.7-3.6A.94.94,0,0,1,40-9.62a.9.9,0,0,1,.73.36,1.07,1.07,0,0,1,.25.72,1,1,0,0,1-.32.68,1,1,0,0,1-.74.29,1,1,0,0,1-.73-.35,1,1,0,0,1-.28-.71A1.1,1.1,0,0,1,39.2-9.33Z"/><path class="l" d="M46.16-10.92,46-13.57a3,3,0,0,0,0-.41,1.15,1.15,0,0,0-.14-.31c-.12-.21-.43-.29-.93-.26s-.81.16-.91.39a.79.79,0,0,0-.08.31,3.07,3.07,0,0,0,0,.41l.49,7.16c0,.19,0,.33,0,.42a1.09,1.09,0,0,0,.13.31c.12.2.44.29.94.26s.81-.16.9-.38A.74.74,0,0,0,46.47-6a2.06,2.06,0,0,0,0-.42l-.15-2.32a.87.87,0,0,1,.33-.61,1.18,1.18,0,0,1,.73-.31,1,1,0,0,1,.72.23,1,1,0,0,1,.32.75l.15,2.09a2.67,2.67,0,0,0,0,.43.83.83,0,0,0,.13.32c.14.2.45.28.93.25s.81-.16.9-.38a.74.74,0,0,0,.09-.32,2.07,2.07,0,0,0,0-.42l-.14-2.1A3.32,3.32,0,0,0,49.56-11a2.55,2.55,0,0,0-2.05-.77A1.75,1.75,0,0,0,46.16-10.92Z"/><path class="l" d="M56.92-12a2.71,2.71,0,0,0-2.61-.74,3.5,3.5,0,0,0-2.25,1.31,3.15,3.15,0,0,0-.55,2.55,3.45,3.45,0,0,0,1.12,2,2.74,2.74,0,0,0,1.2.62,3.93,3.93,0,0,0,1.61,0c1.67-.3,2.45-.8,2.33-1.5a1.32,1.32,0,0,0-.25-.51c-.24-.33-.49-.47-.74-.42a1.11,1.11,0,0,0-.45.21l-.12.07a3.42,3.42,0,0,1-1.05.33,1.47,1.47,0,0,1-.82-.09.65.65,0,0,1-.49-.48l2.8-.49a1.21,1.21,0,0,0,.74-.49,1.49,1.49,0,0,0,.17-1.14A2.45,2.45,0,0,0,56.92-12ZM53.64-9.72a.88.88,0,0,1,.26-.73,1.24,1.24,0,0,1,.71-.45,1,1,0,0,1,.62.07.52.52,0,0,1,.28.4c0,.25-.09.4-.38.45Z"/><path class="l" d="M61.65-13.9a1.69,1.69,0,0,0-.52-.14,1.94,1.94,0,0,0-.75.06,2.66,2.66,0,0,0-1.65,1.43,3.08,3.08,0,0,0-.28,2.35,3.1,3.1,0,0,0,1.44,1.89A2.65,2.65,0,0,0,62-7.9a1.72,1.72,0,0,0,1.26-1,.62.62,0,0,0,.37.39,1.61,1.61,0,0,0,.89-.07c.42-.12.66-.29.71-.52a1,1,0,0,0,0-.34,2.82,2.82,0,0,0-.09-.4L64-13.9c-.05-.18-.09-.31-.12-.4a1.23,1.23,0,0,0-.19-.27.49.49,0,0,0-.37-.16,2.49,2.49,0,0,0-.7.11c-.56.16-.8.46-.73.9A2.27,2.27,0,0,0,61.65-13.9Zm-1.08,2.38a1,1,0,0,1,.65-.53.94.94,0,0,1,.82.13,1,1,0,0,1,.46.62,1.05,1.05,0,0,1-.09.77,1,1,0,0,1-.63.51,1,1,0,0,1-.81-.11,1,1,0,0,1-.49-.61A1.08,1.08,0,0,1,60.57-11.52Z"/><path class="l" d="M67.39-18.88q0,.14.15.39l1,2.31a1.67,1.67,0,0,0-1.51,0,2.67,2.67,0,0,0-1.41,1.66,3.09,3.09,0,0,0,.06,2.37,3.11,3.11,0,0,0,1.7,1.66,2.69,2.69,0,0,0,2.18.07,1.76,1.76,0,0,0,1-1.09c.22.33.58.39,1.09.16s.78-.46.8-.7a.86.86,0,0,0,0-.33,1.81,1.81,0,0,0-.15-.38l-2.88-6.56a2.81,2.81,0,0,0-.18-.38.85.85,0,0,0-.23-.24.51.51,0,0,0-.39-.11,2.19,2.19,0,0,0-.58.18,2,2,0,0,0-.53.31.5.5,0,0,0-.19.35A1.12,1.12,0,0,0,67.39-18.88ZM67.63-13a1,1,0,0,1,0-.78,1,1,0,0,1,.57-.61,1,1,0,0,1,.83,0,1.07,1.07,0,0,1,.55.56,1,1,0,0,1,0,.77,1,1,0,0,1-.54.59,1,1,0,0,1-.83,0A1,1,0,0,1,67.63-13Z"/><path class="l" d="M73.09-22.19q.06.12.21.36l1.38,2.1a1.71,1.71,0,0,0-1.48.26,2.68,2.68,0,0,0-1.13,1.87,3.16,3.16,0,0,0,.46,2.33,3.11,3.11,0,0,0,2,1.35,2.68,2.68,0,0,0,2.16-.29,1.78,1.78,0,0,0,.86-1.25c.27.29.64.28,1.1,0s.69-.58.67-.83a1,1,0,0,0-.07-.32A3.5,3.5,0,0,0,79-17l-3.93-6a2.92,2.92,0,0,0-.24-.34,1.05,1.05,0,0,0-.27-.21.5.5,0,0,0-.4,0,2,2,0,0,0-.55.27,2.15,2.15,0,0,0-.46.39.49.49,0,0,0-.14.38A1.12,1.12,0,0,0,73.09-22.19Zm1.2,5.77a1.09,1.09,0,0,1-.15-.76,1,1,0,0,1,.46-.7.94.94,0,0,1,.82-.13,1.06,1.06,0,0,1,.63.45,1,1,0,0,1,.15.76,1,1,0,0,1-.44.67A1.05,1.05,0,0,1,75-16,1.07,1.07,0,0,1,74.29-16.42Z"/><path class="l" d="M81.74-24.78a2.73,2.73,0,0,0-2.63.69,3.45,3.45,0,0,0-1.28,2.27,3.17,3.17,0,0,0,.82,2.48,3.48,3.48,0,0,0,2,1.17A2.74,2.74,0,0,0,82-18.25a3.88,3.88,0,0,0,1.4-.79c1.3-1.1,1.72-1.92,1.26-2.47a1.47,1.47,0,0,0-.48-.32.79.79,0,0,0-.85,0,1.16,1.16,0,0,0-.28.41l-.07.12a3.48,3.48,0,0,1-.74.82,1.62,1.62,0,0,1-.75.34.67.67,0,0,1-.67-.18L83-22.14a1.18,1.18,0,0,0,.39-.79A1.46,1.46,0,0,0,82.93-24,2.51,2.51,0,0,0,81.74-24.78Zm-1.67,3.67a.92.92,0,0,1-.14-.77,1.17,1.17,0,0,1,.38-.74.91.91,0,0,1,.57-.26.53.53,0,0,1,.45.2c.16.19.13.39-.1.59Z"/><path class="l" d="M83.06-30.88a3.1,3.1,0,0,0,.28.3l1.81,1.76a1.64,1.64,0,0,0-1.39.57,2.64,2.64,0,0,0-.69,2.07A3.12,3.12,0,0,0,84-24a3.09,3.09,0,0,0,2.19.89,2.63,2.63,0,0,0,2-.75,1.76,1.76,0,0,0,.56-1.41c.33.23.68.14,1.07-.26s.55-.71.48-.95a1.4,1.4,0,0,0-.14-.3l-.29-.3-5.14-5a2,2,0,0,0-.31-.27.84.84,0,0,0-.3-.15.49.49,0,0,0-.4.06,2,2,0,0,0-.48.38,2.22,2.22,0,0,0-.37.48.52.52,0,0,0,0,.4A.84.84,0,0,0,83.06-30.88Zm2.43,5.37a1.14,1.14,0,0,1-.32-.71,1,1,0,0,1,.3-.78,1,1,0,0,1,.77-.32A1.14,1.14,0,0,1,87-27a1,1,0,0,1,.31.71,1,1,0,0,1-.28.75,1,1,0,0,1-.76.32A1,1,0,0,1,85.49-25.51Z"/></g></pattern></defs><title>Artboard 5</title><rect class="t" width="200" height="200"/></svg>