<svg xmlns="http://www.w3.org/2000/svg" viewBox="0 0 118 160"><defs><style>.a{fill:#fff;}</style></defs><title>trash-icon</title><path class="a" d="M110.94,16.56c-2-1.6-3.6-1.7-16.9-1.7H79.54l-.9-2.4c-3-8-5-8.9-19.8-8.9-7.6-.1-11.8.3-13.9,1.2s-3.5,2.4-4.9,5.7l-1.8,4.3H23.34c-14.7,0-14.8,0-17.1,2.3s-3.8,6.6-2.8,8.2c.7,1,110.5,1.2,111.2.2C115.64,24,113.34,18.26,110.94,16.56Z"/><path class="a" d="M56.74,32.63c-26.6,0-52.5-.9-52.9-.3-1.5,2.3,10.6,95.9,14.4,111.3,2.6,10.4,10.2,12.5,20.5,12.7,15.8.3,23.6,0,40.7-.3,9.7-.2,19.5-3.7,21.3-14.2.5-3,14-108.6,13.5-109.6C113.84,31.53,84.94,32.53,56.74,32.63ZM37,143h-.24a2.51,2.51,0,0,1-2.49-2.26l-8.5-87.9a2.5,2.5,0,1,1,5-.48l8.5,87.9A2.51,2.51,0,0,1,37,143Zm24.86-2.49a2.5,2.5,0,0,1-5,0V52.33a2.5,2.5,0,0,1,5,0Zm21.79.24A2.51,2.51,0,0,1,81.15,143h-.24a2.51,2.51,0,0,1-2.25-2.73l8.6-87.9a2.5,2.5,0,0,1,5,.48Z"/></svg>